<svg width="49" height="48" viewBox="0 0 49 48" fill="none" xmlns="http://www.w3.org/2000/svg">
<rect x="0.177795" width="48" height="48" rx="8" fill="#FFFAF1"/>
<path d="M33.8509 30.5534C33.2081 29.9802 32.6452 29.3232 32.1776 28.6C31.6671 27.6017 31.3611 26.5115 31.2776 25.3934V22.1C31.282 20.3438 30.6449 18.6463 29.4861 17.3267C28.3272 16.007 26.7264 15.1559 24.9843 14.9333V14.0733C24.9843 13.8373 24.8905 13.6109 24.7236 13.444C24.5567 13.2771 24.3303 13.1833 24.0943 13.1833C23.8582 13.1833 23.6319 13.2771 23.4649 13.444C23.298 13.6109 23.2043 13.8373 23.2043 14.0733V14.9467C21.4778 15.1853 19.8963 16.0415 18.7526 17.3568C17.609 18.672 16.9808 20.3571 16.9843 22.1V25.3934C16.9008 26.5115 16.5948 27.6017 16.0843 28.6C15.6249 29.3216 15.0711 29.9785 14.4376 30.5534C14.3665 30.6158 14.3095 30.6927 14.2704 30.7789C14.2313 30.8651 14.2111 30.9587 14.2109 31.0534V31.96C14.2109 32.1368 14.2812 32.3064 14.4062 32.4314C14.5312 32.5564 14.7008 32.6267 14.8776 32.6267H33.4109C33.5877 32.6267 33.7573 32.5564 33.8823 32.4314C34.0074 32.3064 34.0776 32.1368 34.0776 31.96V31.0534C34.0775 30.9587 34.0572 30.8651 34.0181 30.7789C33.979 30.6927 33.9221 30.6158 33.8509 30.5534ZM15.5976 31.2934C16.2179 30.6942 16.764 30.0227 17.2243 29.2934C17.8673 28.0877 18.2426 26.7574 18.3243 25.3934V22.1C18.2978 21.3187 18.4289 20.5401 18.7096 19.8105C18.9904 19.0809 19.4151 18.4152 19.9584 17.8532C20.5018 17.2911 21.1527 16.8441 21.8724 16.5389C22.5921 16.2336 23.3658 16.0763 24.1476 16.0763C24.9294 16.0763 25.7031 16.2336 26.4228 16.5389C27.1425 16.8441 27.7934 17.2911 28.3368 17.8532C28.8801 18.4152 29.3048 19.0809 29.5856 19.8105C29.8663 20.5401 29.9974 21.3187 29.9709 22.1V25.3934C30.0527 26.7574 30.4279 28.0877 31.0709 29.2934C31.5312 30.0227 32.0773 30.6942 32.6976 31.2934H15.5976Z" fill="#FFA412"/>
<path d="M24.1773 34.8533C24.5972 34.8436 25.0003 34.6857 25.315 34.4075C25.6298 34.1294 25.836 33.7488 25.8973 33.3333H22.3906C22.4536 33.7601 22.6695 34.1496 22.9982 34.4292C23.3268 34.7088 23.7458 34.8595 24.1773 34.8533Z" fill="#FFA412"/>
<path d="M28.9704 12.6667C30.3531 12.6667 31.4741 11.1743 31.4741 9.33333C31.4741 7.49238 30.3531 6 28.9704 6C27.5876 6 26.4667 7.49238 26.4667 9.33333C26.4667 11.1743 27.5876 12.6667 28.9704 12.6667Z" fill="#EB5757"/>
</svg>
